<svg width="24" height="24" viewBox="0 0 24 24" fill="none" xmlns="http://www.w3.org/2000/svg">
<path d="M20.5 12C20.5 13.5 19.2 15.5 17 16.5C15.8 17.1 14.5 17.2 13.3 16.8C12.9 16.7 12.5 16.8 12.2 17.1L10.5 18.8C10.2 19.1 9.7 19.1 9.4 18.8C9.1 18.5 9.1 18 9.4 17.7L10.2 16.9C10.5 16.6 10.5 16.1 10.2 15.8C9.1 14.7 8.5 13.2 8.5 11.5C8.5 8.5 11 6 14 6C17.5 6 20.5 8.5 20.5 12Z" fill="#FF7A45"/>
<path d="M8.5 11.5C8.5 13.2 9.1 14.7 10.2 15.8C10.5 16.1 10.5 16.6 10.2 16.9L9.4 17.7C9.1 18 9.1 18.5 9.4 18.8C9.7 19.1 10.2 19.1 10.5 18.8L12.2 17.1C12.5 16.8 12.9 16.7 13.3 16.8C14.5 17.2 15.8 17.1 17 16.5C17.3 16.4 17.6 16.2 17.8 16C17.3 15.2 16.5 14.7 15.6 14.7C14.8 14.7 14.1 15.1 13.6 15.7C13.2 16.2 12.5 16.3 12 15.9C11.2 15.3 10.7 14.4 10.7 13.5C10.7 12.1 11.8 11 13.2 11C13.9 11 14.5 11.3 15 11.7C15.3 12 15.8 12 16.1 11.7C16.4 11.4 16.4 10.9 16.1 10.6C15.4 9.9 14.4 9.5 13.3 9.5C10.7 9.5 8.5 11.5 8.5 11.5Z" fill="#FF955C"/>
<circle cx="16" cy="10" r="1.5" fill="#FFFFFF"/>
<path d="M4.5 10C4.5 9.4 4.9 8.9 5.5 8.8C6.5 8.6 7.4 9.2 7.6 10.2C7.8 11 7.4 11.8 6.7 12.2C6.4 12.4 6.2 12.7 6.2 13.1C6.2 13.5 6.4 13.8 6.7 14C7.4 14.4 7.8 15.2 7.6 16C7.4 17 6.5 17.6 5.5 17.4C4.9 17.3 4.5 16.8 4.5 16.2V10Z" fill="#FF7A45"/>
</svg>